<svg class="for-display" width="48" height="48" viewBox="0 0 48 48" fill="none" xmlns="http://www.w3.org/2000/svg">
  <g>
    <mask id="mask2_2912_2286" style="mask-type:luminance" maskUnits="userSpaceOnUse" x="24" y="12" width="25" height="36">
      <path d="M25.7978 32.1938C25.6142 31.9337 25.5071 31.6277 25.5071 31.291C25.5071 30.9085 25.6448 30.5719 25.8743 30.2964C26.1497 29.9598 26.5782 29.7456 27.0525 29.7456C27.2667 29.7456 27.4656 29.7915 27.6492 29.868C28.2001 30.0975 28.5979 30.6484 28.5979 31.291C28.5979 31.3675 28.5979 31.444 28.5826 31.5205C28.4755 32.2703 27.8329 32.8365 27.0525 32.8365C26.5322 32.8365 26.0885 32.5916 25.7978 32.1938ZM31.398 39.5843C31.2297 38.9723 31.0461 38.3602 30.8472 37.7941C30.4953 36.7995 30.128 35.912 29.8067 35.2234C28.9192 36.2792 27.8482 37.182 26.6394 37.9318C26.5322 38.0083 26.4098 38.0695 26.3027 38.1307C25.859 38.3908 25.4 38.6203 24.9409 38.8192V36.7536C25.0939 36.6771 25.2316 36.6006 25.3694 36.5088C27.6645 35.1775 29.4089 33.1425 30.3423 30.7096C30.4953 30.327 30.6177 29.9292 30.7248 29.5161C30.8472 29.0264 30.9543 28.5368 31.0155 28.0472C31.3215 25.8438 30.9696 23.6098 30.0056 21.59L31.6276 20.6567C32.4691 22.3857 32.9282 24.2372 32.9894 26.1192C33.02 27.0832 32.9435 28.0625 32.7599 29.0417C32.6986 29.3631 32.6221 29.6691 32.5456 29.9904C32.3773 30.6484 32.1478 31.2757 31.8877 31.8878C33.9534 32.0255 35.9578 32.4386 37.8552 33.1272C38.4519 33.3414 39.0487 33.5709 39.6148 33.8463C40.181 34.1065 40.7318 34.3819 41.2673 34.6879C40.9307 35.2234 40.5788 35.7437 40.1963 36.2486C39.6301 35.9426 39.0487 35.6519 38.4519 35.3918C37.8399 35.1316 37.2125 34.8868 36.5546 34.6879C34.8408 34.1371 33.0353 33.8157 31.1532 33.7392C31.5511 34.5502 32.1019 35.7896 32.6221 37.2738C32.8211 37.84 33.0047 38.4367 33.173 39.0488C33.4178 39.9362 33.6167 40.8849 33.7391 41.8183C33.1577 42.1396 32.5762 42.415 31.9642 42.6751C31.8724 41.6347 31.6582 40.5789 31.398 39.5843ZM39.3853 18.8664C38.911 19.0041 38.2989 19.2183 37.5644 19.5397C37.5032 19.5703 37.442 19.6009 37.3808 19.6162C37.0748 19.7539 36.7535 19.9069 36.4168 20.0905C36.6617 20.7179 36.8606 21.3605 37.0442 22.0185C37.2431 22.7682 37.3808 23.518 37.4879 24.2984C38.2989 24.329 39.064 24.4361 39.7831 24.6044C40.0738 24.6809 40.3493 24.7574 40.6094 24.8492C40.6094 24.5738 40.6247 24.2831 40.6247 24.0076C40.6247 22.6917 40.4717 21.4064 40.1657 20.1364C40.0585 19.6774 39.9208 19.2183 39.7678 18.7593C39.6454 18.7899 39.523 18.8205 39.37 18.8664M24.9409 46.1179C27.4044 46.0108 29.7761 45.5059 31.9642 44.6643C32.6068 44.4195 33.2495 44.1288 33.8615 43.8227C36.983 42.262 39.6913 39.9821 41.757 37.1973C42.1242 36.6924 42.4914 36.1721 42.8128 35.6366C44.8631 32.3468 46.0719 28.4756 46.1178 24.329C46.1178 24.2219 46.1178 24.1147 46.1178 23.9923C46.1178 23.1508 46.0719 22.3092 45.9801 21.4982C45.9801 21.437 45.9801 21.3605 45.9648 21.2993C45.9648 21.2381 45.9648 21.1922 45.9495 21.131C45.9495 21.0698 45.9495 21.0086 45.9189 20.9627C45.9189 20.9168 45.9189 20.8709 45.9036 20.825C45.6282 18.9429 45.1233 17.1374 44.4194 15.4542C43.7767 15.8368 43.2565 16.1734 42.8434 16.4488C41.9406 17.0915 41.5428 17.5046 41.3745 17.7494C42.0936 19.7539 42.4608 21.8502 42.4608 24.0076C42.4608 24.0688 42.4608 24.13 42.4608 24.2065C42.9811 23.8393 43.5931 23.4568 44.2817 23.1202C44.2817 23.4109 44.297 23.7169 44.297 24.0076C44.297 24.4208 44.297 24.8339 44.2664 25.247C42.9811 26.0274 42.063 26.8996 42.0477 26.9149L41.7876 27.1597L41.5581 27.3892L40.9613 27.0526C40.64 26.869 40.3034 26.716 39.9514 26.6088C38.911 26.2569 37.8093 26.1651 36.9677 26.1651C36.8606 26.1651 36.7688 26.1651 36.677 26.1651H35.7895L35.7283 25.4459V25.3082C35.6365 24.2066 35.4376 23.1202 35.1162 22.0491C34.9173 21.3758 34.6878 20.7179 34.3971 20.0752L34.0605 19.3102L34.7796 18.897C35.0397 18.744 35.2846 18.6063 35.5294 18.4686C35.7742 18.3309 36.019 18.2085 36.2638 18.1014C36.6464 17.9177 37.0136 17.7494 37.3502 17.627C37.6256 17.5199 37.8858 17.4128 38.1306 17.3363C38.8344 17.0915 39.4006 16.9538 39.7678 16.8773C40.1657 16.2346 40.9307 15.546 42.0936 14.7504C42.5526 14.4444 43.0729 14.123 43.6543 13.7711C43.8992 13.6334 44.144 13.4957 44.4041 13.3427L45.2763 12.853C47.0206 16.1887 48.0152 19.9834 48.0152 24.0076C48.0152 36.9525 37.7787 47.495 24.9562 47.9847V46.1332L24.9409 46.1179Z" fill="white"></path>
    </mask>
    <g mask="url(#mask2_2912_2286)">
      <path d="M30.7026 2.85473L9.72461 39.1897L42.23 57.9567L63.208 21.6217L30.7026 2.85473Z" fill="url(#paint0_linear_2912_2286)"></path>
    </g>
    <mask id="mask3_2912_2286" style="mask-type:luminance" maskUnits="userSpaceOnUse" x="0" y="12" width="24" height="37">
      <path d="M15.4082 24.329C15.4082 24.329 15.2858 24.2525 15.2246 24.2066C14.6278 23.7476 14.4595 22.906 14.842 22.2328C15.1022 21.789 15.5459 21.5136 16.0202 21.4677C16.3263 21.4371 16.6629 21.4983 16.9536 21.6666C17.2749 21.8502 17.5198 22.141 17.6269 22.4776C17.7799 22.8907 17.7493 23.3651 17.5198 23.7782C17.4126 23.9618 17.2749 24.1148 17.1219 24.2372C16.8465 24.4515 16.5252 24.5586 16.1886 24.5586C15.9284 24.5586 15.6683 24.4974 15.4235 24.3443M5.30937 31.9032C5.86021 31.5665 6.39575 31.1993 6.916 30.8168C7.45154 30.4189 7.97178 29.9905 8.47672 29.5315C9.80793 28.3227 11.0014 26.915 11.996 25.3236C11.0932 25.2624 9.74673 25.1247 8.2013 24.8187C7.61985 24.7116 7.0078 24.5739 6.38045 24.4056C5.49298 24.176 4.57491 23.87 3.70274 23.5028C3.70274 22.8448 3.76394 22.1869 3.84045 21.5289C4.78912 21.9727 5.79901 22.3093 6.80889 22.5847C7.42094 22.753 8.04829 22.8907 8.62974 22.9978C9.67022 23.1968 10.6189 23.3192 11.3687 23.3957C10.9096 22.0951 10.6495 20.718 10.6036 19.3102C10.6036 19.1725 10.6036 19.0501 10.6036 18.9124C10.6036 18.3922 10.6342 17.8872 10.6954 17.3823L11.8124 18.0249L12.4856 18.4075C12.4856 18.5758 12.4856 18.7441 12.4856 18.8971C12.4856 20.4731 12.7917 21.988 13.3884 23.3957C13.8016 24.3749 14.3371 25.2777 15.0257 26.1193C15.2858 26.4406 15.5612 26.7619 15.8672 27.0527C16.2192 27.4046 16.6017 27.7412 16.9842 28.0319C18.7439 29.3938 20.8554 30.2047 23.0894 30.3883V32.2551C21.1768 32.1327 19.3406 31.5971 17.6728 30.6944C16.8159 30.2353 16.0049 29.6845 15.2705 29.0265C15.0257 28.8123 14.7808 28.5981 14.5513 28.3533C14.077 27.8789 13.6332 27.3587 13.2354 26.8231C12.0878 28.5369 10.7107 30.067 9.18058 31.3829C8.69094 31.7961 8.2013 32.1786 7.68106 32.5611C7.17612 32.913 6.67118 33.2497 6.13563 33.571C5.82961 33.0202 5.56949 32.454 5.32467 31.8726M0.0151367 24.0077C0.0151367 19.9682 1.00972 16.1582 2.76936 12.8225L4.39129 13.7559C3.2896 15.8522 2.52454 18.1473 2.14201 20.5802C2.0349 21.2535 1.95839 21.9421 1.91249 22.6459C1.88189 23.1049 1.86659 23.5487 1.86659 24.0077C1.86659 27.1292 2.50924 30.0976 3.68744 32.7906C3.93226 33.3721 4.20768 33.9382 4.5137 34.4891C7.74226 40.4566 13.6179 44.7868 20.5647 45.8732C20.0751 45.001 19.463 44.2666 18.7898 43.6239C16.6935 41.6654 13.924 40.732 11.9042 40.3035C10.9861 39.6303 10.1293 38.8805 9.3642 38.0696C9.88444 38.1002 12.302 38.2685 15.0257 39.2631C17.3208 40.1046 19.2029 41.2981 20.6106 42.8129C20.3199 41.7113 19.9068 40.7473 19.3865 39.9363C18.8663 39.0947 18.2236 38.4062 17.4586 37.8706C17.4279 37.8553 17.4126 37.84 17.382 37.8247C16.2957 37.075 15.0716 36.6924 13.8628 36.5547C12.7458 36.417 11.6747 36.4782 10.7413 36.6006C9.73143 36.7384 8.90516 36.9526 8.46142 37.1056C8.03299 36.6006 7.63516 36.0804 7.26793 35.5449L7.40564 35.499C7.48214 35.4684 8.1554 35.2235 9.18058 34.994C9.80793 34.8563 10.5577 34.7339 11.384 34.6727C13.5108 34.5044 16.1579 34.7492 18.4225 36.3099C19.1264 36.7996 19.7537 37.381 20.3046 38.0696C20.733 38.6051 21.1003 39.1866 21.4216 39.8292C22.0642 41.0992 22.5233 42.5834 22.7834 44.2972C22.8752 44.8786 22.9364 45.506 22.9823 46.1486C23.0282 46.7454 23.0435 47.3727 23.0435 48.0154C10.267 47.4951 0.0151367 36.9526 0.0151367 24.0077Z" fill="white"></path>
    </mask>
    <g mask="url(#mask3_2912_2286)">
      <path d="M17.3336 2.83247L-15.1982 21.6147L5.79506 57.9762L38.3269 39.1939L17.3336 2.83247Z" fill="url(#paint1_linear_2912_2286)"></path>
    </g>
    <mask id="mask4_2912_2286" style="mask-type:luminance" maskUnits="userSpaceOnUse" x="3" y="0" width="42" height="20">
      <path d="M11.0935 15.4083C11.0935 15.4083 10.9557 15.3777 10.8945 15.3471C10.8486 15.3318 10.8027 15.3012 10.7568 15.2706L5.34019 12.1492L3.71826 11.2158C7.95671 4.48326 15.4543 0 24.0077 0C32.5611 0 40.0587 4.46796 44.3125 11.2005L42.6905 12.1339C41.3899 10.0988 39.768 8.29327 37.9012 6.77845C37.3657 6.35002 36.7995 5.93688 36.2334 5.55435C33.3874 3.6723 30.0976 2.4176 26.5324 2.00446C25.9204 1.92796 25.3083 1.88205 24.681 1.86675C24.4514 1.86675 24.2372 1.86675 24.0077 1.86675C22.447 1.86675 20.9322 2.01976 19.4785 2.34109C18.8665 2.4635 18.2544 2.61651 17.6577 2.80013C13.1132 4.16194 9.19611 6.94676 6.38068 10.6191L7.97201 11.5371L11.2618 13.4345C11.4913 13.205 11.7973 12.8836 12.1492 12.5317C12.2105 12.4705 12.287 12.394 12.3635 12.3328C12.8837 11.8279 13.4499 11.2923 13.9701 10.8639L15.6226 11.0475L16.3112 11.124L16.5713 11.1546H16.7396L17.2293 11.2311L17.0915 10.9863L16.6172 10.1141L16.2041 9.34906C16.7549 9.05834 17.3211 8.79821 17.9025 8.5687C18.2697 8.41568 18.6523 8.29327 19.0348 8.17086C18.8818 7.78833 18.7135 7.29869 18.5452 6.73255C18.3616 6.1358 18.1779 5.43194 18.0096 4.63628C18.6064 4.45266 19.2031 4.28435 19.8152 4.16194C19.9682 4.8811 20.1365 5.53905 20.3048 6.08989C20.5343 6.85496 20.7638 7.4517 20.9169 7.84954C21.0393 8.14026 21.1158 8.32388 21.1464 8.38508C21.2688 8.6452 21.2688 8.93593 21.1464 9.18075C21.024 9.44087 20.7944 9.62448 20.519 9.68569C19.9376 9.8234 19.3561 10.007 18.8053 10.2212L20.4425 13.205L20.5955 13.4957L18.3462 13.2509L14.5974 12.8377C14.3679 13.052 14.1231 13.2815 13.8783 13.511C13.2509 14.123 12.6389 14.7504 12.3176 15.087C12.0727 15.3471 11.7361 15.4849 11.3995 15.4849C11.3077 15.4849 11.2159 15.4849 11.1241 15.4543M28.5216 19.2337C28.0931 19.1572 27.6953 18.897 27.4658 18.4839C27.3587 18.3003 27.2975 18.1167 27.2669 17.9331C27.1751 17.3363 27.4658 16.709 28.0166 16.3876C28.0778 16.357 28.139 16.3264 28.2156 16.2958C28.9194 16.0051 29.7457 16.2805 30.1282 16.9538C30.3883 17.3975 30.3883 17.9178 30.2047 18.3615C30.0823 18.6522 29.8681 18.897 29.5774 19.0653C29.3325 19.2031 29.0724 19.2796 28.8123 19.2796C28.7205 19.2796 28.6287 19.2796 28.5369 19.249M17.3058 19.05C18.3769 17.4587 19.7846 16.1275 21.3759 15.1482C22.2022 14.6433 23.0896 14.2149 24.0077 13.8935C24.9411 13.5722 25.9204 13.3427 26.9149 13.2203C26.0122 11.3688 25.3695 9.42556 25.0023 7.4211C24.8799 6.79375 24.8034 6.1664 24.7422 5.53905C24.681 4.927 24.6504 4.31495 24.6351 3.6876C25.2624 3.7029 25.8898 3.7488 26.5018 3.84061C26.5018 4.48326 26.563 5.14122 26.6395 5.78387C26.716 6.45712 26.8231 7.11508 26.9761 7.77303C27.374 9.54797 28.0013 11.277 28.8582 12.9295C29.3631 12.1798 30.1588 11.0781 31.184 9.8999C31.5818 9.45617 31.995 8.98183 32.454 8.53809C33.1119 7.88014 33.8158 7.23749 34.5809 6.65604C35.147 6.99267 35.6826 7.3599 36.2181 7.75773C35.3612 8.35448 34.5503 9.05834 33.8158 9.8081C33.3568 10.2671 32.9436 10.7262 32.5458 11.1852C31.8572 11.9809 31.2758 12.7459 30.8321 13.3733C32.1939 13.6334 33.5251 14.0924 34.7492 14.7504C34.8716 14.8116 34.9787 14.8728 35.1011 14.9493C35.5448 15.2094 35.9733 15.4849 36.3864 15.7909L35.2694 16.4335L34.5962 16.8161C34.4585 16.7243 34.3207 16.6478 34.1677 16.5559C32.8212 15.7756 31.337 15.2859 29.8222 15.1023C29.3631 15.0411 28.8888 15.0105 28.4145 15.0105C27.8177 15.0105 27.221 15.0564 26.6242 15.1482C25.7214 15.2859 24.834 15.5461 23.9924 15.8827C21.9573 16.7243 20.1824 18.132 18.9124 19.9834L17.2905 19.05H17.3058Z" fill="white"></path>
    </mask>
    <g mask="url(#mask4_2912_2286)">
      <path d="M44.3126 0H3.70312V19.9834H44.3126V0Z" fill="url(#paint2_linear_2912_2286)"></path>
    </g>
  </g>
  <defs>
    <linearGradient id="paint0_linear_2912_2286" x1="45.0174" y1="35.8395" x2="25.2465" y2="24.4248" gradientUnits="userSpaceOnUse">
      <stop stop-color="#007EFF"></stop>
      <stop offset="1" stop-color="#007EFF"></stop>
    </linearGradient>
    <linearGradient id="paint1_linear_2912_2286" x1="-0.141157" y1="31.0696" x2="19.6695" y2="19.6319" gradientUnits="userSpaceOnUse">
      <stop stop-color="#05C988"></stop>
      <stop offset="1" stop-color="#05C988"></stop>
    </linearGradient>
    <linearGradient id="paint2_linear_2912_2286" x1="17.7191" y1="23.496" x2="17.7191" y2="0.482907" gradientUnits="userSpaceOnUse">
      <stop stop-color="#FFB92C"></stop>
      <stop offset="1" stop-color="#FFB92C"></stop>
    </linearGradient>
  </defs>
</svg>